# xmcd
#
# Track frame offsets: 
#        150
#        9357
#        22845
#        34045
#        50501
#        52791
#        64027
#        81153
#        93764
#        103090
#        111393
#        122936
#        139978
#
# Disc length: 2051 seconds
#
# Revision: 0
# Processed by: cddbd v1.5.2PL0 Copyright (c) Steve Scherf et al.
# Submitted via: ExactAudioCopy v0.99pb5
#
DISCID=a208010d
DTITLE=The Backyard Devils - The Backyard Devils
DYEAR=2011
DGENRE=Bluegrass
TTITLE0=Big Trucks and Steel Trains
TTITLE1=Mean Moonshine Blues
TTITLE2=Little Woman
TTITLE3=House on the Coast
TTITLE4=Cold and Lonesome
TTITLE5=Can't Get You Off My Mind
TTITLE6=Old Train
TTITLE7=Drinking Alone
TTITLE8=Gonna See My Baby
TTITLE9=For My Lord
TTITLE10=Junkhead Blues
TTITLE11=This River
TTITLE12=Blue Yodel No. 9
EXTD=
EXTT0=
EXTT1=
EXTT2=
EXTT3=
EXTT4=
EXTT5=
EXTT6=
EXTT7=
EXTT8=
EXTT9=
EXTT10=
EXTT11=
EXTT12=
PLAYORDER=
